<svg version="1.1" id="Layer_1" xmlns="http://www.w3.org/2000/svg" xmlns:xlink="http://www.w3.org/1999/xlink" x="0px" y="0px"
	 width="100%" viewBox="0 0 446 81" enable-background="new 0 0 446 81" xml:space="preserve">
<path fill="#FDFDFE" opacity="1.000000" stroke="none" 
	d="
M335.000000,82.000000 
	C223.333344,82.000000 112.166695,82.000000 1.000030,82.000000 
	C1.000020,55.000015 1.000020,28.000032 1.000010,1.000037 
	C149.666641,1.000025 298.333282,1.000025 446.999939,1.000012 
	C446.999939,27.999962 446.999939,54.999924 446.999969,81.999939 
	C409.833344,82.000000 372.666656,82.000000 335.000000,82.000000 
M70.164528,42.490685 
	C70.164101,37.658466 70.050377,32.822781 70.197945,27.995087 
	C70.323364,23.891806 68.731285,20.993063 65.129158,19.016895 
	C57.687809,14.934491 50.279850,10.789828 42.902061,6.593581 
	C39.538845,4.680693 36.329422,4.707343 32.975430,6.612500 
	C25.595821,10.804313 18.188284,14.948452 10.745087,19.026150 
	C7.334664,20.894527 5.676639,23.600420 5.710891,27.514776 
	C5.783789,35.845539 5.782902,44.177803 5.711568,52.508591 
	C5.678018,56.426865 7.358229,59.118362 10.765137,60.985817 
	C18.207468,65.065239 25.609531,69.219276 32.990589,73.408829 
	C36.347336,75.314148 39.567436,75.317627 42.916153,73.383324 
	C47.671589,70.636459 52.492706,68.003067 57.292011,65.332428 
	C71.977806,57.160313 70.035110,59.487637 70.164528,42.490685 
M378.852112,53.333954 
	C378.851196,51.001713 378.922668,48.666664 378.832458,46.337883 
	C378.697327,42.849041 379.233582,39.718735 383.574493,39.683723 
	C388.294525,39.645657 387.938049,43.318974 387.970642,46.494572 
	C388.014557,50.770710 387.981537,55.047634 387.981537,59.186184 
	C394.810089,60.427097 394.963409,60.313087 394.979431,54.473660 
	C394.987213,51.641651 395.143921,48.797810 394.940399,45.980473 
	C394.668945,42.222710 395.762146,39.632660 399.937256,39.656250 
	C404.252228,39.680630 404.304382,42.989563 404.349243,46.059940 
	C404.415955,50.625507 404.366516,55.192764 404.366516,59.737839 
	C407.245880,59.737839 409.173706,59.737839 411.203308,59.737839 
	C411.203308,53.509018 411.634583,47.522755 411.092529,41.625961 
	C410.436462,34.488708 403.886322,31.037024 397.155975,33.818130 
	C395.504120,34.500710 394.019714,35.588490 392.462646,36.497581 
	C386.975159,31.814026 384.492920,31.714849 377.524445,35.478794 
	C375.673157,34.694942 374.341736,33.880577 372.924896,33.685127 
	C372.503754,33.627033 371.378845,35.300125 371.364441,36.192730 
	C371.238556,43.981781 371.291687,51.773720 371.291687,59.783752 
	C374.168518,59.783752 376.104401,59.783752 378.556976,59.783752 
	C378.661926,57.823689 378.757019,56.047867 378.852112,53.333954 
M108.492989,45.999035 
	C106.593620,43.726612 104.694252,41.454193 102.685654,39.051086 
	C108.005829,32.931541 113.115211,27.054462 118.519272,20.838432 
	C112.857452,19.026903 109.531784,20.246265 106.635498,24.115215 
	C103.505760,28.296019 99.755501,32.012302 96.275902,35.931198 
	C95.885475,35.818165 95.495049,35.705132 95.104622,35.592098 
	C95.104622,30.419613 95.104622,25.247124 95.104622,20.360743 
	C92.260155,20.360743 90.183830,20.360743 88.197861,20.360743 
	C88.197861,33.767879 88.197861,46.803699 88.197861,59.664177 
	C90.733902,59.664177 92.814064,59.664177 95.386398,59.664177 
	C95.386398,53.794258 95.386398,48.254128 95.386398,41.410313 
	C99.979019,47.039486 104.074341,51.399685 107.374344,56.295921 
	C110.456512,60.868977 114.145096,60.473545 119.379128,59.203957 
	C115.616623,54.627586 112.289658,50.580971 108.492989,45.999035 
M223.061905,59.974911 
	C223.621964,59.657249 224.577850,59.436630 224.683060,59.007462 
	C226.415924,51.939213 231.828247,52.503513 237.180481,52.838699 
	C238.670410,52.932003 240.290054,52.496632 241.636261,52.945431 
	C243.256790,53.485680 245.504333,54.393375 245.987137,55.695625 
	C247.758102,60.472324 250.955109,60.589951 255.655762,59.422562 
	C249.422150,45.792202 243.355530,32.526955 237.288895,19.261707 
	C236.713852,19.245165 236.138794,19.228622 235.563751,19.212080 
	C229.430786,32.561447 223.297836,45.910816 216.820755,60.009251 
	C219.348389,60.009251 220.810715,60.009251 223.061905,59.974911 
M316.073944,35.370872 
	C310.135162,41.004547 308.949097,49.532219 313.269592,55.534206 
	C317.313263,61.151661 324.090729,61.804062 330.918823,57.810417 
	C333.031708,58.829731 334.654358,59.612549 336.813507,60.654186 
	C336.813507,46.479179 336.813507,33.438164 336.813507,20.381367 
	C334.444824,20.381367 332.415314,20.381367 330.020813,20.381367 
	C330.020813,25.034925 330.020813,29.311031 330.020813,32.433853 
	C325.198486,33.354286 320.962769,34.162758 316.073944,35.370872 
M129.931503,21.889723 
	C127.838455,21.080717 125.745407,20.271713 123.199921,19.287834 
	C123.199921,33.666378 123.199921,46.693012 123.199921,59.594109 
	C125.607826,59.594109 127.646614,59.594109 129.955856,59.594109 
	C129.955856,55.045166 130.058319,50.904137 129.926407,46.770584 
	C129.799957,42.807777 130.654037,39.508564 135.378845,39.663895 
	C140.017288,39.816387 140.099014,43.477707 140.092560,46.944649 
	C140.084641,51.197540 140.090668,55.450459 140.090668,59.769493 
	C142.802750,59.769493 144.728256,59.769493 147.228241,59.769493 
	C147.228241,55.605183 147.267242,51.660725 147.212738,47.717552 
	C147.182907,45.560894 147.215042,43.366867 146.836197,41.258526 
	C145.790390,35.438541 141.197083,32.267536 135.148010,33.128029 
	C133.462982,33.367725 131.837128,34.023384 129.952774,34.553276 
	C129.952774,30.448378 129.952774,26.631691 129.931503,21.889723 
M424.457947,73.160820 
	C430.023499,60.315102 435.589020,47.469383 441.180054,34.564846 
	C434.253876,32.361973 433.404388,32.736134 431.244324,38.324524 
	C429.917297,41.757801 428.551697,45.176182 426.777588,49.683117 
	C425.342621,45.074921 424.301849,41.791954 423.298615,38.497540 
	C421.544312,32.736713 420.636627,32.308216 414.177094,34.482281 
	C414.824829,36.482777 415.304535,38.565407 416.153107,40.484974 
	C420.779480,50.950329 424.468018,61.413330 417.320740,72.302460 
	C417.276825,72.369339 417.448334,72.577621 417.866272,73.416077 
	C419.579559,73.416077 421.651581,73.416077 424.457947,73.160820 
M196.899857,57.214115 
	C197.783157,62.505074 201.193573,59.269279 204.069504,59.689167 
	C204.069504,54.760075 204.109344,50.296249 204.058456,45.833462 
	C204.006256,41.256569 203.767242,36.539280 199.009567,34.198803 
	C194.276794,31.870586 189.635818,32.607903 185.549469,36.116177 
	C183.678741,34.554764 180.511032,30.822412 179.835205,35.192268 
	C178.596130,43.203823 179.482162,51.544041 179.482162,59.467087 
	C185.127213,60.965111 187.357513,59.556782 186.787003,54.356369 
	C186.444443,51.233952 186.707352,48.042591 186.736572,44.882572 
	C186.769089,41.365280 188.787643,39.787037 192.093292,39.664261 
	C195.603546,39.533890 196.713531,41.860680 196.825287,44.798897 
	C196.970612,48.619202 196.882950,52.448376 196.899857,57.214115 
M343.430115,53.717976 
	C349.754730,62.039371 359.158325,62.980389 365.258087,55.667294 
	C364.337524,54.429611 363.377594,53.139023 362.458893,51.903877 
	C353.918579,55.545208 350.758240,54.598534 349.337585,47.783718 
	C355.174286,47.783718 360.929016,47.783718 366.610474,47.783718 
	C367.943909,37.517651 360.361206,30.761940 351.208252,33.601612 
	C343.169891,36.095474 339.948700,43.768890 343.430115,53.717976 
M168.452637,58.058075 
	C169.761047,58.838741 171.069458,59.619411 173.369934,60.991989 
	C173.369934,54.683491 173.467224,49.880657 173.349869,45.083076 
	C173.097321,34.759159 169.466888,31.714813 159.236343,33.192265 
	C157.469955,33.447353 155.752182,34.038898 153.557785,34.588852 
	C153.834000,36.507202 154.076401,38.190723 154.312088,39.827541 
	C165.772964,39.004185 165.772964,39.004185 166.274689,43.732529 
	C164.946350,43.556908 163.644012,43.178257 162.368607,43.253891 
	C158.135651,43.504921 153.945679,44.100773 151.858246,48.541286 
	C150.156464,52.161411 151.170837,55.513481 153.855804,58.131435 
	C157.305878,61.495407 161.435089,60.795841 165.491714,59.251122 
	C166.257950,58.959347 166.940292,58.447227 168.452637,58.058075 
M305.991089,42.897480 
	C304.758484,32.992912 296.637238,29.811617 286.081757,35.353611 
	C286.434814,36.808750 286.805664,38.337132 287.161743,39.804668 
	C298.545776,38.968346 298.545776,38.968346 298.678101,43.574928 
	C296.409790,43.574928 294.084320,43.248833 291.885040,43.637257 
	C285.762878,44.718521 283.114990,48.230217 284.021515,53.563770 
	C284.856598,58.477039 289.255219,61.310974 294.955109,60.113605 
	C298.220490,59.427647 301.305847,57.654434 304.605774,59.916138 
	C304.793640,60.044910 305.404358,59.556686 306.018921,59.258167 
	C306.018921,54.082329 306.018921,48.947475 305.991089,42.897480 
M270.335480,32.998539 
	C262.516235,33.351299 256.988831,37.595566 255.862473,44.111790 
	C254.712494,50.764664 258.139282,57.336720 263.961395,59.644241 
	C270.602997,62.276546 276.303589,60.476669 280.557556,54.101814 
	C279.351410,52.973061 278.090759,51.793346 276.820648,50.604752 
	C272.954132,53.538998 269.213654,55.700775 265.345306,51.924530 
	C262.464264,49.112080 262.499725,45.555592 264.903259,42.427738 
	C268.560699,37.668159 272.722412,39.831856 276.922729,42.394703 
	C278.167938,40.932129 279.279358,39.626709 281.287537,37.267960 
	C277.327881,35.611900 274.248566,34.324036 270.335480,32.998539 
z"/>
<path fill="#05BB8F" opacity="1.000000" stroke="none" 
	d="
M70.164566,42.987419 
	C70.035110,59.487637 71.977806,57.160313 57.292011,65.332428 
	C52.492706,68.003067 47.671589,70.636459 42.916153,73.383324 
	C39.567436,75.317627 36.347336,75.314148 32.990589,73.408829 
	C25.609531,69.219276 18.207468,65.065239 10.765137,60.985817 
	C7.358229,59.118362 5.678018,56.426865 5.711568,52.508591 
	C5.782902,44.177803 5.783789,35.845539 5.710891,27.514776 
	C5.676639,23.600420 7.334664,20.894527 10.745087,19.026150 
	C18.188284,14.948452 25.595821,10.804313 32.975430,6.612500 
	C36.329422,4.707343 39.538845,4.680693 42.902061,6.593581 
	C50.279850,10.789828 57.687809,14.934491 65.129158,19.016895 
	C68.731285,20.993063 70.323364,23.891806 70.197945,27.995087 
	C70.050377,32.822781 70.164101,37.658466 70.164566,42.987419 
M29.447542,40.054596 
	C24.997929,35.764736 19.809175,33.373245 13.535410,33.511375 
	C12.601039,43.745529 17.326820,53.053913 25.952759,57.387177 
	C35.693825,62.280624 45.215210,61.732803 53.991673,54.959064 
	C60.572205,49.880157 64.060310,40.349613 62.016960,33.245621 
	C46.847195,34.686066 40.433342,44.526108 38.619038,58.670811 
	C35.502182,52.159096 32.728279,46.363861 29.447542,40.054596 
M30.505074,26.626606 
	C30.799549,31.320139 33.119499,34.160107 37.975140,34.236565 
	C41.769939,34.296322 44.294449,32.325859 45.129246,28.553669 
	C46.047474,24.404449 43.754375,20.741449 39.754757,19.747261 
	C35.401775,18.665234 32.446251,20.656502 30.505074,26.626606 
z"/>
<path fill="#1F3161" opacity="1.000000" stroke="none" 
	d="
M378.852112,53.803001 
	C378.757019,56.047867 378.661926,57.823689 378.556976,59.783752 
	C376.104401,59.783752 374.168518,59.783752 371.291687,59.783752 
	C371.291687,51.773720 371.238556,43.981781 371.364441,36.192730 
	C371.378845,35.300125 372.503754,33.627033 372.924896,33.685127 
	C374.341736,33.880577 375.673157,34.694942 377.524445,35.478794 
	C384.492920,31.714849 386.975159,31.814026 392.460480,36.493782 
	C394.019714,35.588490 395.504120,34.500710 397.155975,33.818130 
	C403.886322,31.037024 410.436462,34.488708 411.092529,41.625961 
	C411.634583,47.522755 411.203308,53.509018 411.203308,59.737839 
	C409.173706,59.737839 407.245880,59.737839 404.366516,59.737839 
	C404.366516,55.192764 404.415955,50.625507 404.349243,46.059940 
	C404.304382,42.989563 404.252228,39.680630 399.937256,39.656250 
	C395.762146,39.632660 394.668945,42.222710 394.940399,45.980473 
	C395.143921,48.797810 394.987213,51.641651 394.979431,54.473660 
	C394.963409,60.313087 394.810089,60.427097 387.981537,59.186184 
	C387.981537,55.047634 388.014557,50.770710 387.970642,46.494572 
	C387.938049,43.318974 388.294525,39.645657 383.574493,39.683723 
	C379.233582,39.718735 378.697327,42.849041 378.832458,46.337883 
	C378.922668,48.666664 378.851196,51.001713 378.852112,53.803001 
z"/>
<path fill="#17295B" opacity="1.000000" stroke="none" 
	d="
M108.727844,46.266693 
	C112.289658,50.580971 115.616623,54.627586 119.379128,59.203957 
	C114.145096,60.473545 110.456512,60.868977 107.374344,56.295921 
	C104.074341,51.399685 99.979019,47.039486 95.386398,41.410313 
	C95.386398,48.254128 95.386398,53.794258 95.386398,59.664177 
	C92.814064,59.664177 90.733902,59.664177 88.197861,59.664177 
	C88.197861,46.803699 88.197861,33.767879 88.197861,20.360743 
	C90.183830,20.360743 92.260155,20.360743 95.104622,20.360743 
	C95.104622,25.247124 95.104622,30.419613 95.104622,35.592098 
	C95.495049,35.705132 95.885475,35.818165 96.275902,35.931198 
	C99.755501,32.012302 103.505760,28.296019 106.635498,24.115215 
	C109.531784,20.246265 112.857452,19.026903 118.519272,20.838432 
	C113.115211,27.054462 108.005829,32.931541 102.685654,39.051086 
	C104.694252,41.454193 106.593620,43.726612 108.727844,46.266693 
z"/>
<path fill="#1A2C5E" opacity="1.000000" stroke="none" 
	d="
M222.667480,59.992081 
	C220.810715,60.009251 219.348389,60.009251 216.820755,60.009251 
	C223.297836,45.910816 229.430786,32.561447 235.563751,19.212080 
	C236.138794,19.228622 236.713852,19.245165 237.288895,19.261707 
	C243.355530,32.526955 249.422150,45.792202 255.655762,59.422562 
	C250.955109,60.589951 247.758102,60.472324 245.987137,55.695625 
	C245.504333,54.393375 243.256790,53.485680 241.636261,52.945431 
	C240.290054,52.496632 238.670410,52.932003 237.180481,52.838699 
	C231.828247,52.503513 226.415924,51.939213 224.683060,59.007462 
	C224.577850,59.436630 223.621964,59.657249 222.667480,59.992081 
M231.564636,44.310844 
	C231.923782,44.924660 232.256821,46.050838 232.646240,46.070683 
	C235.581528,46.220264 238.527893,46.152294 242.046555,46.152294 
	C240.119354,41.894093 238.394608,38.083256 236.377167,33.625656 
	C234.707230,37.333717 233.301270,40.455627 231.564636,44.310844 
z"/>
<path fill="#172A5C" opacity="1.000000" stroke="none" 
	d="
M316.400513,35.171051 
	C320.962769,34.162758 325.198486,33.354286 330.020813,32.433853 
	C330.020813,29.311031 330.020813,25.034925 330.020813,20.381367 
	C332.415314,20.381367 334.444824,20.381367 336.813507,20.381367 
	C336.813507,33.438164 336.813507,46.479179 336.813507,60.654186 
	C334.654358,59.612549 333.031708,58.829731 330.918823,57.810417 
	C324.090729,61.804062 317.313263,61.151661 313.269592,55.534206 
	C308.949097,49.532219 310.135162,41.004547 316.400513,35.171051 
M318.834686,50.441719 
	C320.446533,54.009407 323.704285,55.072876 326.647247,53.546455 
	C328.403595,52.635521 329.123932,49.444103 329.954742,47.149220 
	C330.380951,45.971920 330.395416,44.361862 329.928558,43.220360 
	C329.404724,41.939575 328.316711,40.306999 327.145935,39.970867 
	C321.001068,38.206669 317.406097,42.371056 318.834686,50.441719 
z"/>
<path fill="#182A5C" opacity="1.000000" stroke="none" 
	d="
M129.942139,22.352364 
	C129.952774,26.631691 129.952774,30.448378 129.952774,34.553276 
	C131.837128,34.023384 133.462982,33.367725 135.148010,33.128029 
	C141.197083,32.267536 145.790390,35.438541 146.836197,41.258526 
	C147.215042,43.366867 147.182907,45.560894 147.212738,47.717552 
	C147.267242,51.660725 147.228241,55.605183 147.228241,59.769493 
	C144.728256,59.769493 142.802750,59.769493 140.090668,59.769493 
	C140.090668,55.450459 140.084641,51.197540 140.092560,46.944649 
	C140.099014,43.477707 140.017288,39.816387 135.378845,39.663895 
	C130.654037,39.508564 129.799957,42.807777 129.926407,46.770584 
	C130.058319,50.904137 129.955856,55.045166 129.955856,59.594109 
	C127.646614,59.594109 125.607826,59.594109 123.199921,59.594109 
	C123.199921,46.693012 123.199921,33.666378 123.199921,19.287834 
	C125.745407,20.271713 127.838455,21.080717 129.942139,22.352364 
z"/>
<path fill="#1E3060" opacity="1.000000" stroke="none" 
	d="
M424.090759,73.288452 
	C421.651581,73.416077 419.579559,73.416077 417.866272,73.416077 
	C417.448334,72.577621 417.276825,72.369339 417.320740,72.302460 
	C424.468018,61.413330 420.779480,50.950329 416.153107,40.484974 
	C415.304535,38.565407 414.824829,36.482777 414.177094,34.482281 
	C420.636627,32.308216 421.544312,32.736713 423.298615,38.497540 
	C424.301849,41.791954 425.342621,45.074921 426.777588,49.683117 
	C428.551697,45.176182 429.917297,41.757801 431.244324,38.324524 
	C433.404388,32.736134 434.253876,32.361973 441.180054,34.564846 
	C435.589020,47.469383 430.023499,60.315102 424.090759,73.288452 
z"/>
<path fill="#203262" opacity="1.000000" stroke="none" 
	d="
M196.897705,56.743923 
	C196.882950,52.448376 196.970612,48.619202 196.825287,44.798897 
	C196.713531,41.860680 195.603546,39.533890 192.093292,39.664261 
	C188.787643,39.787037 186.769089,41.365280 186.736572,44.882572 
	C186.707352,48.042591 186.444443,51.233952 186.787003,54.356369 
	C187.357513,59.556782 185.127213,60.965111 179.482162,59.467087 
	C179.482162,51.544041 178.596130,43.203823 179.835205,35.192268 
	C180.511032,30.822412 183.678741,34.554764 185.549469,36.116177 
	C189.635818,32.607903 194.276794,31.870586 199.009567,34.198803 
	C203.767242,36.539280 204.006256,41.256569 204.058456,45.833462 
	C204.109344,50.296249 204.069504,54.760075 204.069504,59.689167 
	C201.193573,59.269279 197.783157,62.505074 196.897705,56.743923 
z"/>
<path fill="#192C5D" opacity="1.000000" stroke="none" 
	d="
M343.244995,53.365189 
	C339.948700,43.768890 343.169891,36.095474 351.208252,33.601612 
	C360.361206,30.761940 367.943909,37.517651 366.610474,47.783718 
	C360.929016,47.783718 355.174286,47.783718 349.337585,47.783718 
	C350.758240,54.598534 353.918579,55.545208 362.458893,51.903877 
	C363.377594,53.139023 364.337524,54.429611 365.258087,55.667294 
	C359.158325,62.980389 349.754730,62.039371 343.244995,53.365189 
M359.622589,41.932312 
	C355.507477,37.259037 352.020691,37.642529 349.756317,43.954521 
	C353.382080,43.502819 356.579987,43.104416 359.622589,41.932312 
z"/>
<path fill="#1A2C5E" opacity="1.000000" stroke="none" 
	d="
M168.056992,58.047428 
	C166.940292,58.447227 166.257950,58.959347 165.491714,59.251122 
	C161.435089,60.795841 157.305878,61.495407 153.855804,58.131435 
	C151.170837,55.513481 150.156464,52.161411 151.858246,48.541286 
	C153.945679,44.100773 158.135651,43.504921 162.368607,43.253891 
	C163.644012,43.178257 164.946350,43.556908 166.274689,43.732529 
	C165.772964,39.004185 165.772964,39.004185 154.312088,39.827541 
	C154.076401,38.190723 153.834000,36.507202 153.557785,34.588852 
	C155.752182,34.038898 157.469955,33.447353 159.236343,33.192265 
	C169.466888,31.714813 173.097321,34.759159 173.349869,45.083076 
	C173.467224,49.880657 173.369934,54.683491 173.369934,60.991989 
	C171.069458,59.619411 169.761047,58.838741 168.056992,58.047428 
M161.818420,47.922409 
	C159.031097,48.394661 157.358963,50.054161 158.562897,52.729370 
	C159.099350,53.921398 161.750534,55.274490 162.788559,54.871513 
	C164.412811,54.240952 165.482269,52.181278 166.786743,50.726974 
	C165.402435,49.773613 164.018112,48.820251 161.818420,47.922409 
z"/>
<path fill="#1A2D5E" opacity="1.000000" stroke="none" 
	d="
M306.005005,43.355049 
	C306.018921,48.947475 306.018921,54.082329 306.018921,59.258167 
	C305.404358,59.556686 304.793640,60.044910 304.605774,59.916138 
	C301.305847,57.654434 298.220490,59.427647 294.955109,60.113605 
	C289.255219,61.310974 284.856598,58.477039 284.021515,53.563770 
	C283.114990,48.230217 285.762878,44.718521 291.885040,43.637257 
	C294.084320,43.248833 296.409790,43.574928 298.678101,43.574928 
	C298.545776,38.968346 298.545776,38.968346 287.161743,39.804668 
	C286.805664,38.337132 286.434814,36.808750 286.081757,35.353611 
	C296.637238,29.811617 304.758484,32.992912 306.005005,43.355049 
M290.915924,51.513523 
	C291.064575,55.011429 293.470825,55.689522 296.066223,54.926983 
	C299.373718,53.955215 299.877869,51.393917 298.663269,48.182308 
	C295.625793,48.016190 292.522308,46.763237 290.915924,51.513523 
z"/>
<path fill="#1B2D5E" opacity="1.000000" stroke="none" 
	d="
M270.752380,33.017357 
	C274.248566,34.324036 277.327881,35.611900 281.287537,37.267960 
	C279.279358,39.626709 278.167938,40.932129 276.922729,42.394703 
	C272.722412,39.831856 268.560699,37.668159 264.903259,42.427738 
	C262.499725,45.555592 262.464264,49.112080 265.345306,51.924530 
	C269.213654,55.700775 272.954132,53.538998 276.820648,50.604752 
	C278.090759,51.793346 279.351410,52.973061 280.557556,54.101814 
	C276.303589,60.476669 270.602997,62.276546 263.961395,59.644241 
	C258.139282,57.336720 254.712494,50.764664 255.862473,44.111790 
	C256.988831,37.595566 262.516235,33.351299 270.752380,33.017357 
z"/>
<path fill="#F8FDFC" opacity="1.000000" stroke="none" 
	d="
M29.700958,40.311615 
	C32.728279,46.363861 35.502182,52.159096 38.619038,58.670811 
	C40.433342,44.526108 46.847195,34.686066 62.016960,33.245621 
	C64.060310,40.349613 60.572205,49.880157 53.991673,54.959064 
	C45.215210,61.732803 35.693825,62.280624 25.952759,57.387177 
	C17.326820,53.053913 12.601039,43.745529 13.535410,33.511375 
	C19.809175,33.373245 24.997929,35.764736 29.700958,40.311615 
z"/>
<path fill="#F4FCFA" opacity="1.000000" stroke="none" 
	d="
M30.561279,26.265030 
	C32.446251,20.656502 35.401775,18.665234 39.754757,19.747261 
	C43.754375,20.741449 46.047474,24.404449 45.129246,28.553669 
	C44.294449,32.325859 41.769939,34.296322 37.975140,34.236565 
	C33.119499,34.160107 30.799549,31.320139 30.561279,26.265030 
z"/>
<path fill="#F3F4F7" opacity="1.000000" stroke="none" 
	d="
M231.729980,43.944191 
	C233.301270,40.455627 234.707230,37.333717 236.377167,33.625656 
	C238.394608,38.083256 240.119354,41.894093 242.046555,46.152294 
	C238.527893,46.152294 235.581528,46.220264 232.646240,46.070683 
	C232.256821,46.050838 231.923782,44.924660 231.729980,43.944191 
z"/>
<path fill="#FAFAFB" opacity="1.000000" stroke="none" 
	d="
M318.660156,50.082947 
	C317.406097,42.371056 321.001068,38.206669 327.145935,39.970867 
	C328.316711,40.306999 329.404724,41.939575 329.928558,43.220360 
	C330.395416,44.361862 330.380951,45.971920 329.954742,47.149220 
	C329.123932,49.444103 328.403595,52.635521 326.647247,53.546455 
	C323.704285,55.072876 320.446533,54.009407 318.660156,50.082947 
z"/>
<path fill="#DBDEE6" opacity="1.000000" stroke="none" 
	d="
M359.700256,42.319160 
	C356.579987,43.104416 353.382080,43.502819 349.756317,43.954521 
	C352.020691,37.642529 355.507477,37.259037 359.700256,42.319160 
z"/>
<path fill="#F2F3F6" opacity="1.000000" stroke="none" 
	d="
M162.226105,47.894646 
	C164.018112,48.820251 165.402435,49.773613 166.786743,50.726978 
	C165.482269,52.181278 164.412811,54.240952 162.788559,54.871513 
	C161.750534,55.274490 159.099350,53.921398 158.562897,52.729370 
	C157.358963,50.054161 159.031097,48.394661 162.226105,47.894646 
z"/>
<path fill="#F6F7F9" opacity="1.000000" stroke="none" 
	d="
M290.959412,51.098026 
	C292.522308,46.763237 295.625793,48.016190 298.663269,48.182308 
	C299.877869,51.393917 299.373718,53.955215 296.066223,54.926983 
	C293.470825,55.689522 291.064575,55.011429 290.959412,51.098026 
z"/>
</svg>